<svg width="38" height="28" viewBox="0 0 38 28" fill="none" xmlns="http://www.w3.org/2000/svg">
<path d="M32.5 7.33334H27.5V0.666672H4.16671C2.33337 0.666672 0.833374 2.16667 0.833374 4.00001V22.3333H4.16671C4.16671 25.1 6.40004 27.3333 9.16671 27.3333C11.9334 27.3333 14.1667 25.1 14.1667 22.3333H24.1667C24.1667 25.1 26.4 27.3333 29.1667 27.3333C31.9334 27.3333 34.1667 25.1 34.1667 22.3333H37.5V14L32.5 7.33334ZM31.6667 9.83334L34.9334 14H27.5V9.83334H31.6667ZM9.16671 24C8.25004 24 7.50004 23.25 7.50004 22.3333C7.50004 21.4167 8.25004 20.6667 9.16671 20.6667C10.0834 20.6667 10.8334 21.4167 10.8334 22.3333C10.8334 23.25 10.0834 24 9.16671 24ZM12.8667 19C11.95 17.9833 10.65 17.3333 9.16671 17.3333C7.68337 17.3333 6.38337 17.9833 5.46671 19H4.16671V4.00001H24.1667V19H12.8667ZM29.1667 24C28.25 24 27.5 23.25 27.5 22.3333C27.5 21.4167 28.25 20.6667 29.1667 20.6667C30.0834 20.6667 30.8334 21.4167 30.8334 22.3333C30.8334 23.25 30.0834 24 29.1667 24Z" fill="#417F56"/>
</svg>
