<svg width="37" height="36" viewBox="0 0 37 36" fill="none" xmlns="http://www.w3.org/2000/svg">
<path d="M36.8333 17.9833L32.7667 13.3333L33.3333 7.18333L27.3167 5.81667L24.1667 0.5L18.5 2.93333L12.8333 0.5L9.68334 5.81667L3.66667 7.16667L4.23334 13.3333L0.166672 17.9833L4.23334 22.6333L3.66667 28.8L9.68334 30.1667L12.8333 35.5L18.5 33.05L24.1667 35.4833L27.3167 30.1667L33.3333 28.8L32.7667 22.65L36.8333 17.9833ZM30.25 20.45L29.3167 21.5333L29.45 22.95L29.75 26.2L25.1833 27.2333L24.45 28.4667L22.8 31.2667L19.8333 29.9833L18.5 29.4167L17.1833 29.9833L14.2167 31.2667L12.5667 28.4833L11.8333 27.25L7.26667 26.2167L7.56667 22.95L7.7 21.5333L6.76667 20.45L4.61667 18L6.76667 15.5333L7.7 14.45L7.55 13.0167L7.25 9.78333L11.8167 8.75L12.55 7.51667L14.2 4.71667L17.1667 6L18.5 6.56667L19.8167 6L22.7833 4.71667L24.4333 7.51667L25.1667 8.75L29.7333 9.78333L29.4333 13.0333L29.3 14.45L30.2333 15.5333L32.3833 17.9833L30.25 20.45Z" fill="#417F56"/>
<path d="M15.3167 20.9167L11.45 17.0333L8.98334 19.5167L15.3167 25.8667L27.55 13.6L25.0833 11.1167L15.3167 20.9167Z" fill="#417F56"/>
</svg>
